<svg width="108" height="120" viewBox="0 0 108 120" fill="none" xmlns="http://www.w3.org/2000/svg">
<path d="M39.6327 65.284L30.5967 53.692C30.4527 53.5 30.4167 53.284 30.4887 53.044C30.5607 52.804 30.7167 52.684 30.9567 52.684H37.8687C38.1087 52.684 38.3607 52.756 38.6247 52.9C38.8887 53.044 39.0927 53.212 39.2367 53.404L43.7367 59.992C43.8807 60.184 44.0487 60.28 44.2407 60.28C44.4327 60.28 44.6007 60.184 44.7447 59.992C45.5127 58.912 46.2687 57.808 47.0127 56.68C47.7807 55.528 48.5247 54.424 49.2447 53.368C49.3887 53.176 49.5927 53.02 49.8567 52.9C50.1207 52.756 50.3727 52.684 50.6127 52.684H57.4887C57.7767 52.684 57.9447 52.804 57.9927 53.044C58.0407 53.284 57.9927 53.5 57.8487 53.692L48.8847 65.284C48.7407 65.476 48.6687 65.704 48.6687 65.968C48.6687 66.232 48.7407 66.46 48.8847 66.652L57.6687 77.956C57.8127 78.148 57.8367 78.376 57.7407 78.64C57.6687 78.88 57.5127 79 57.2727 79H50.4327C50.1927 79 49.9407 78.928 49.6767 78.784C49.4127 78.64 49.2087 78.472 49.0647 78.28L44.7447 71.98C44.6007 71.788 44.4327 71.692 44.2407 71.692C44.0487 71.692 43.8807 71.788 43.7367 71.98L39.4167 78.28C39.2727 78.472 39.0687 78.64 38.8047 78.784C38.5407 78.928 38.2887 79 38.0487 79H31.2087C30.9687 79 30.8127 78.88 30.7407 78.64C30.6687 78.376 30.7047 78.148 30.8487 77.956L39.6327 66.652C39.7767 66.46 39.8487 66.232 39.8487 65.968C39.8487 65.704 39.7767 65.476 39.6327 65.284ZM76.2413 76.156C75.7133 76.828 75.1133 77.38 74.4413 77.812C73.7933 78.22 73.1213 78.544 72.4253 78.784C71.7293 79.024 71.0213 79.192 70.3013 79.288C69.6053 79.384 68.9573 79.432 68.3573 79.432C66.9173 79.432 65.6573 79.18 64.5773 78.676C63.4973 78.148 62.5733 77.5 61.8053 76.732C61.0613 75.94 60.4493 75.088 59.9693 74.176C59.4893 73.264 59.1053 72.424 58.8173 71.656C58.7453 71.416 58.7573 71.2 58.8533 71.008C58.9733 70.816 59.1533 70.696 59.3933 70.648L64.0013 69.604C64.2413 69.556 64.4453 69.604 64.6133 69.748C64.8053 69.868 64.9373 70.036 65.0093 70.252C65.0813 70.516 65.1893 70.804 65.3333 71.116C65.4773 71.404 65.6813 71.68 65.9453 71.944C66.2093 72.184 66.5333 72.4 66.9173 72.592C67.3253 72.76 67.8053 72.844 68.3573 72.844C69.1733 72.844 69.7853 72.64 70.1933 72.232C70.6013 71.8 70.8053 71.368 70.8053 70.936C70.8053 70.168 70.6133 69.58 70.2293 69.172C69.8693 68.764 69.4253 68.476 68.8973 68.308C68.3693 68.116 67.8053 68.02 67.2053 68.02C66.6053 68.02 66.0893 68.044 65.6573 68.092C65.4173 68.116 65.2133 68.056 65.0453 67.912C64.9013 67.768 64.8293 67.576 64.8293 67.336V64.312C64.8293 64.072 64.9013 63.88 65.0453 63.736C65.2133 63.568 65.4293 63.484 65.6933 63.484C66.1973 63.508 66.8213 63.484 67.5653 63.412C68.3333 63.34 69.0533 63.136 69.7253 62.8C70.0853 62.608 70.3973 62.32 70.6613 61.936C70.9253 61.552 71.0333 61.108 70.9853 60.604C70.8653 59.332 69.9893 58.696 68.3573 58.696C67.8053 58.696 67.3373 58.78 66.9533 58.948C66.5693 59.116 66.2453 59.32 65.9813 59.56C65.7173 59.8 65.5013 60.064 65.3333 60.352C65.1893 60.64 65.0813 60.904 65.0093 61.144C64.8413 61.672 64.5053 61.9 64.0013 61.828L59.4293 60.82C59.1893 60.772 59.0093 60.652 58.8893 60.46C58.7933 60.244 58.7813 60.028 58.8533 59.812C59.1413 59.02 59.5253 58.18 60.0053 57.292C60.4853 56.38 61.1093 55.54 61.8773 54.772C62.6453 54.004 63.5573 53.368 64.6133 52.864C65.6693 52.336 66.9173 52.072 68.3573 52.072C70.1093 52.072 71.5973 52.324 72.8213 52.828C74.0453 53.332 75.0293 53.98 75.7733 54.772C76.5413 55.564 77.0933 56.452 77.4293 57.436C77.7653 58.396 77.9333 59.344 77.9333 60.28C77.9333 61.072 77.8373 61.756 77.6453 62.332C77.4533 62.908 77.2013 63.4 76.8893 63.808C76.6013 64.216 76.2773 64.552 75.9173 64.816C75.5573 65.056 75.1973 65.248 74.8373 65.392C74.3813 65.584 74.3813 65.788 74.8373 66.004C75.1973 66.172 75.5573 66.412 75.9173 66.724C76.2773 67.012 76.6013 67.372 76.8893 67.804C77.2013 68.236 77.4533 68.74 77.6453 69.316C77.8373 69.868 77.9333 70.504 77.9333 71.224C77.9333 71.488 77.9093 71.812 77.8613 72.196C77.8373 72.556 77.7653 72.952 77.6453 73.384C77.5253 73.816 77.3453 74.272 77.1053 74.752C76.8893 75.232 76.6013 75.7 76.2413 76.156Z" fill="#E20613"/>
<path d="M104 66C104 93.6142 81.6142 116 54 116C26.3858 116 4 93.6142 4 66C4 38.3858 26.3858 16 54 16" stroke="#E20613" stroke-width="8" stroke-linecap="round"/>
<path d="M49 28L64 16L49 4" stroke="#E20613" stroke-width="8" stroke-linecap="round" stroke-linejoin="round"/>
</svg>
