<svg width="547" height="722" viewBox="0 0 547 722" fill="none" xmlns="http://www.w3.org/2000/svg">
<circle cx="512" cy="485" r="32" fill="white" stroke="#E20613" stroke-width="5"/>
<circle cx="35" cy="485" r="32" fill="white" stroke="#E20613" stroke-width="5"/>
<ellipse cx="35" cy="34.36" rx="32" ry="31.36" fill="white" stroke="#E20613" stroke-width="5"/>
<ellipse cx="510" cy="34.36" rx="32" ry="31.36" fill="white" stroke="#E20613" stroke-width="5"/>
<path d="M407.915 25L384.459 78.8265L351.01 155.733C335.979 192.965 322.6 218.152 310.046 232.556C295.758 248.898 282.957 251.004 273.459 251.004C263.961 251.004 251.242 248.898 236.954 232.556C224.4 218.152 210.938 192.965 195.907 155.565L139.168 25L93 25V47.912H124.549L175.259 164.662C191.447 204.927 205.735 231.377 220.188 247.887C228.86 257.827 238.358 264.987 248.517 269.199C258.84 273.495 267.677 274 273.459 274C279.24 274 288.077 273.495 298.401 269.199C308.477 264.987 318.057 257.827 326.729 247.887C341.182 231.377 355.388 205.011 371.575 164.831L404.942 88.1766L422.451 47.912H454V25L407.915 25Z" fill="black"/>
<path d="M407.915 473L384.459 526.826L351.01 603.733C335.979 640.965 322.6 666.152 310.046 680.556C295.758 696.898 282.957 699.004 273.459 699.004C263.961 699.004 251.242 696.898 236.954 680.556C224.4 666.152 210.938 640.965 195.907 603.565L139.168 473H93V495.912H124.549L175.259 612.662C191.447 652.927 205.735 679.377 220.188 695.887C228.86 705.827 238.358 712.987 248.517 717.199C258.84 721.495 267.677 722 273.459 722C279.24 722 288.077 721.495 298.401 717.199C308.477 712.987 318.057 705.827 326.729 695.887C341.182 679.377 355.388 653.011 371.575 612.831L404.942 536.177L422.451 495.912H454V473H407.915Z" fill="black"/>
<path d="M501 92.3739L501 427H522V92L501 92.3739Z" fill="black"/>
<path d="M24 92L24 427H45L45 92H24Z" fill="black"/>
<path d="M27.8221 472.332H30.8821C31.1461 472.332 31.3981 472.344 31.6381 472.368C31.9021 472.368 32.0941 472.452 32.2141 472.62C32.3341 472.788 32.3941 473.016 32.3941 473.304C32.3941 473.568 32.3941 473.856 32.3941 474.168V477.444V488.352L32.3941 490.476C32.3941 490.668 32.3821 490.86 32.3581 491.052C32.3581 491.22 32.3821 491.388 32.4301 491.556V491.916C32.4301 492.084 32.4301 492.252 32.4301 492.42C32.4541 492.564 32.4901 492.696 32.5381 492.816C32.7061 493.128 33.0421 493.284 33.5461 493.284C34.0501 493.284 34.5421 493.284 35.0221 493.284H42.0061C42.1981 493.284 42.4381 493.284 42.7261 493.284C43.0141 493.26 43.2901 493.26 43.5541 493.284C43.8181 493.284 44.0581 493.308 44.2741 493.356C44.5141 493.404 44.6701 493.476 44.7421 493.572C44.8621 493.716 44.9221 493.896 44.9221 494.112C44.9221 494.328 44.9221 494.556 44.9221 494.796L44.9221 496.452C44.9221 496.644 44.9221 496.824 44.9221 496.992C44.9461 497.16 44.9341 497.304 44.8861 497.424C44.7901 497.616 44.6701 497.748 44.5261 497.82C44.4061 497.916 44.2261 497.964 43.9861 497.964C43.7461 497.964 43.5181 497.964 43.3021 497.964H40.7461H30.9901H28.3981C28.0621 497.964 27.7621 497.952 27.4981 497.928C27.2581 497.88 27.0781 497.76 26.9581 497.568C26.8621 497.424 26.8141 497.244 26.8141 497.028C26.8141 496.788 26.8141 496.56 26.8141 496.344V493.824L26.8141 484.284V476.148L26.8141 473.88C26.8141 473.664 26.8141 473.448 26.8141 473.232C26.8381 473.016 26.8861 472.848 26.9581 472.728C27.0541 472.56 27.2461 472.44 27.5341 472.368C27.5821 472.344 27.6301 472.344 27.6781 472.368C27.7261 472.368 27.7741 472.356 27.8221 472.332Z" fill="#E20613"/>
<path d="M25.492 22.332H28.264C28.72 22.332 29.104 22.356 29.416 22.404C29.728 22.428 29.944 22.632 30.064 23.016C30.088 23.136 30.1 23.268 30.1 23.412C30.1 23.532 30.1 23.664 30.1 23.808V25.248L30.1 29.928V30.72C30.1 30.936 30.1 31.152 30.1 31.368C30.1 31.584 30.136 31.776 30.208 31.944C30.232 31.992 30.268 32.04 30.316 32.088C30.388 32.136 30.448 32.16 30.496 32.16C30.664 32.208 30.82 32.16 30.964 32.016C31.132 31.872 31.252 31.764 31.324 31.692C31.516 31.5 31.708 31.308 31.9 31.116C32.092 30.924 32.272 30.72 32.44 30.504C32.512 30.456 32.608 30.372 32.728 30.252C32.824 30.156 32.92 30.06 33.016 29.964C33.112 29.844 33.196 29.724 33.268 29.604C33.316 29.556 33.364 29.52 33.412 29.496C33.46 29.472 33.508 29.436 33.556 29.388C33.676 29.196 33.82 29.04 33.988 28.92C34.156 28.776 34.3 28.62 34.42 28.452C34.564 28.26 34.696 28.104 34.816 27.984C34.864 27.96 34.924 27.912 34.996 27.84C35.284 27.456 35.608 27.108 35.968 26.796C36.328 26.484 36.652 26.136 36.94 25.752L37.12 25.572C37.192 25.5 37.264 25.428 37.336 25.356C37.408 25.284 37.48 25.2 37.552 25.104C37.576 25.056 37.6 25.032 37.624 25.032C37.648 25.008 37.684 24.972 37.732 24.924C37.876 24.828 37.984 24.696 38.056 24.528C38.104 24.48 38.164 24.432 38.236 24.384C38.308 24.336 38.368 24.288 38.416 24.24C38.488 24.12 38.572 24.012 38.668 23.916C38.764 23.82 38.86 23.712 38.956 23.592C39.004 23.544 39.04 23.508 39.064 23.484C39.112 23.46 39.16 23.424 39.208 23.376C39.376 23.136 39.568 22.932 39.784 22.764C40 22.572 40.276 22.44 40.612 22.368C40.804 22.32 41.02 22.308 41.26 22.332C41.524 22.332 41.764 22.332 41.98 22.332H44.752C45.016 22.332 45.292 22.332 45.58 22.332C45.892 22.308 46.132 22.356 46.3 22.476C46.444 22.596 46.48 22.74 46.408 22.908C46.336 23.052 46.276 23.172 46.228 23.268C46.108 23.388 45.988 23.508 45.868 23.628C45.748 23.724 45.628 23.832 45.508 23.952C45.34 24.144 45.172 24.324 45.004 24.492C44.86 24.66 44.692 24.828 44.5 24.996C43.66 25.836 42.82 26.688 41.98 27.552C41.14 28.416 40.3 29.268 39.46 30.108C39.076 30.54 38.668 30.948 38.236 31.332C38.068 31.5 37.912 31.668 37.768 31.836C37.624 31.98 37.528 32.184 37.48 32.448C37.432 32.64 37.468 32.832 37.588 33.024C37.708 33.192 37.804 33.336 37.876 33.456C38.116 33.816 38.356 34.176 38.596 34.536C38.86 34.872 39.112 35.22 39.352 35.58C40.36 37.02 41.368 38.448 42.376 39.864C43.384 41.256 44.392 42.672 45.4 44.112L46.696 45.948C46.792 46.092 46.888 46.236 46.984 46.38C47.104 46.5 47.212 46.632 47.308 46.776C47.38 46.896 47.464 47.064 47.56 47.28C47.656 47.496 47.62 47.664 47.452 47.784C47.284 47.904 47.044 47.964 46.732 47.964C46.42 47.964 46.132 47.964 45.868 47.964L43.024 47.964C42.76 47.964 42.496 47.976 42.232 48C41.968 48 41.728 47.976 41.512 47.928C41.248 47.832 41.032 47.7 40.864 47.532C40.72 47.34 40.576 47.136 40.432 46.92C40.288 46.728 40.144 46.536 40 46.344C39.88 46.128 39.748 45.912 39.604 45.696C38.956 44.688 38.296 43.704 37.624 42.744C36.952 41.784 36.28 40.8 35.608 39.792C35.344 39.384 35.08 38.988 34.816 38.604C34.576 38.22 34.324 37.836 34.06 37.452C33.964 37.332 33.844 37.2 33.7 37.056C33.556 36.888 33.364 36.828 33.124 36.876C32.884 36.948 32.644 37.116 32.404 37.38C32.164 37.62 31.96 37.824 31.792 37.992C31.672 38.112 31.552 38.244 31.432 38.388C31.312 38.508 31.192 38.628 31.072 38.748C30.904 38.916 30.748 39.084 30.604 39.252C30.46 39.396 30.34 39.576 30.244 39.792C30.172 39.936 30.124 40.092 30.1 40.26C30.1 40.428 30.1 40.608 30.1 40.8V41.268C30.076 41.388 30.064 41.532 30.064 41.7C30.088 41.844 30.1 41.976 30.1 42.096V43.788V46.344C30.1 46.608 30.088 46.86 30.064 47.1C30.064 47.34 30.004 47.532 29.884 47.676C29.764 47.82 29.584 47.904 29.344 47.928C29.104 47.952 28.852 47.964 28.588 47.964H26.14C25.876 47.964 25.624 47.964 25.384 47.964C25.144 47.94 24.94 47.868 24.772 47.748C24.604 47.628 24.52 47.412 24.52 47.1C24.52 46.764 24.52 46.44 24.52 46.128L24.52 41.952V27.588L24.52 24.24C24.52 23.976 24.508 23.7 24.484 23.412C24.484 23.124 24.532 22.896 24.628 22.728C24.772 22.56 24.964 22.44 25.204 22.368C25.252 22.344 25.3 22.344 25.348 22.368C25.396 22.368 25.444 22.356 25.492 22.332Z" fill="#E20613"/>
<path d="M500.476 23.332H514.876L518.548 23.332C518.86 23.332 519.16 23.344 519.448 23.368C519.76 23.368 520.012 23.428 520.204 23.548C520.276 23.596 520.324 23.68 520.348 23.8C520.396 23.896 520.432 24.004 520.456 24.124V24.304C520.48 24.4 520.492 24.508 520.492 24.628C520.492 24.748 520.492 24.868 520.492 24.988V26.392C520.492 26.56 520.492 26.728 520.492 26.896C520.516 27.04 520.504 27.184 520.456 27.328C520.336 27.736 520.096 27.952 519.736 27.976C519.376 28 518.944 28.012 518.44 28.012L514.768 28.012C514.288 28.012 513.868 28.036 513.508 28.084C513.172 28.108 512.944 28.324 512.824 28.732C512.8 28.852 512.8 28.96 512.824 29.056C512.848 29.152 512.836 29.26 512.788 29.38C512.764 29.524 512.752 29.692 512.752 29.884C512.776 30.052 512.788 30.208 512.788 30.352V33.556V43.924V47.308C512.788 47.692 512.764 48.028 512.716 48.316C512.692 48.58 512.548 48.772 512.284 48.892C512.116 48.94 511.924 48.964 511.708 48.964C511.492 48.964 511.288 48.964 511.096 48.964H508.648C508.384 48.964 508.132 48.952 507.892 48.928C507.676 48.904 507.508 48.82 507.388 48.676C507.268 48.484 507.208 48.244 507.208 47.956C507.208 47.644 507.208 47.332 507.208 47.02V43.42V33.412V30.352C507.208 30.184 507.208 30.016 507.208 29.848C507.232 29.656 507.22 29.488 507.172 29.344C507.148 29.224 507.148 29.116 507.172 29.02C507.196 28.924 507.184 28.828 507.136 28.732C507.016 28.324 506.764 28.108 506.38 28.084C506.02 28.036 505.588 28.012 505.084 28.012H501.736C501.472 28.012 501.172 28.024 500.836 28.048C500.524 28.048 500.272 28.024 500.08 27.976C499.888 27.904 499.744 27.796 499.648 27.652C499.576 27.532 499.528 27.376 499.504 27.184C499.504 26.992 499.504 26.8 499.504 26.608V24.844C499.504 24.532 499.516 24.256 499.54 24.016C499.588 23.776 499.708 23.596 499.9 23.476C499.972 23.428 500.104 23.38 500.296 23.332C500.416 23.332 500.476 23.332 500.476 23.332Z" fill="#E20613"/>
<path d="M500.936 473.332H503.852C504.116 473.332 504.38 473.332 504.644 473.332C504.932 473.332 505.16 473.392 505.328 473.512C505.544 473.632 505.688 473.824 505.76 474.088C505.832 474.352 505.916 474.616 506.012 474.88C506.18 475.336 506.324 475.792 506.444 476.248C506.588 476.704 506.744 477.172 506.912 477.652C507.392 479.14 507.86 480.628 508.316 482.116C508.796 483.604 509.276 485.092 509.756 486.58C509.876 486.988 509.996 487.396 510.116 487.804C510.26 488.212 510.392 488.62 510.512 489.028C510.584 489.244 510.656 489.46 510.728 489.676C510.8 489.892 510.896 490.084 511.016 490.252C511.04 490.3 511.064 490.336 511.088 490.36C511.136 490.36 511.184 490.384 511.232 490.432C511.496 490.432 511.664 490.324 511.736 490.108C511.832 489.868 511.916 489.652 511.988 489.46C512.18 488.956 512.348 488.44 512.492 487.912C512.636 487.384 512.804 486.844 512.996 486.292C513.524 484.708 514.028 483.136 514.508 481.576C515.012 479.992 515.528 478.408 516.056 476.824C516.176 476.44 516.296 476.068 516.416 475.708C516.536 475.324 516.656 474.94 516.776 474.556C516.872 474.364 516.944 474.172 516.992 473.98C517.064 473.788 517.196 473.632 517.388 473.512C517.556 473.392 517.748 473.332 517.964 473.332C518.204 473.332 518.444 473.332 518.684 473.332H521.096C521.336 473.332 521.576 473.332 521.816 473.332C522.056 473.332 522.248 473.38 522.392 473.476C522.632 473.596 522.716 473.824 522.644 474.16C522.572 474.472 522.5 474.736 522.428 474.952C522.212 475.504 522.008 476.08 521.816 476.68C521.648 477.256 521.468 477.832 521.276 478.408C521.204 478.552 521.144 478.696 521.096 478.84C521.072 478.984 521.036 479.128 520.988 479.272C520.796 479.776 520.616 480.292 520.448 480.82C520.304 481.348 520.136 481.876 519.944 482.404C519.296 484.348 518.648 486.304 518 488.272C517.352 490.216 516.704 492.16 516.056 494.104C515.84 494.656 515.648 495.22 515.48 495.796C515.312 496.348 515.132 496.9 514.94 497.452C514.82 497.788 514.7 498.1 514.58 498.388C514.46 498.652 514.22 498.832 513.86 498.928C513.668 498.976 513.452 499 513.212 499C512.972 498.976 512.744 498.964 512.528 498.964H509.936C509.672 498.964 509.384 498.976 509.072 499C508.784 499 508.544 498.94 508.352 498.82C508.088 498.676 507.908 498.46 507.812 498.172C507.74 497.86 507.656 497.56 507.56 497.272C507.392 496.768 507.224 496.264 507.056 495.76C506.912 495.232 506.756 494.716 506.588 494.212C506.06 492.7 505.556 491.176 505.076 489.64C504.596 488.104 504.092 486.568 503.564 485.032C503.348 484.336 503.132 483.652 502.916 482.98C502.724 482.284 502.508 481.6 502.268 480.928C502.172 480.712 502.1 480.496 502.052 480.28C502.004 480.064 501.932 479.848 501.836 479.632C501.62 478.96 501.404 478.3 501.188 477.652C500.996 476.98 500.78 476.308 500.54 475.636C500.492 475.42 500.432 475.216 500.36 475.024C500.288 474.808 500.216 474.592 500.144 474.376C500.12 474.256 500.096 474.136 500.072 474.016C500.072 473.896 500.096 473.788 500.144 473.692C500.216 473.524 500.372 473.416 500.612 473.368C500.66 473.344 500.708 473.344 500.756 473.368C500.828 473.368 500.888 473.356 500.936 473.332Z" fill="#E20613"/>
</svg>
