<svg width="361" height="249" viewBox="0 0 361 249" fill="none" xmlns="http://www.w3.org/2000/svg">
<path d="M314.915 0L291.459 53.8265L258.01 130.733C242.979 167.965 229.6 193.152 217.046 207.556C202.758 223.898 189.957 226.004 180.459 226.004C170.961 226.004 158.242 223.898 143.954 207.556C131.4 193.152 117.938 167.965 102.907 130.565L46.1677 0L0 0L0 22.912L31.5493 22.912L82.2594 139.662C98.447 179.927 112.735 206.377 127.188 222.887C135.86 232.827 145.358 239.987 155.517 244.199C165.84 248.495 174.677 249 180.459 249C186.24 249 195.077 248.495 205.401 244.199C215.477 239.987 225.057 232.827 233.729 222.887C248.182 206.377 262.388 180.011 278.575 139.831L311.942 63.1766L329.451 22.912L361 22.912V0L314.915 0Z" fill="black"/>
</svg>
