<svg width="70" height="69" viewBox="0 0 70 69" fill="none" xmlns="http://www.w3.org/2000/svg">
<ellipse cx="35" cy="34.36" rx="32" ry="31.36" fill="white" stroke="#E20613" stroke-width="5"/>
<path d="M25.492 22.332H28.264C28.72 22.332 29.104 22.356 29.416 22.404C29.728 22.428 29.944 22.632 30.064 23.016C30.088 23.136 30.1 23.268 30.1 23.412C30.1 23.532 30.1 23.664 30.1 23.808V25.248L30.1 29.928V30.72C30.1 30.936 30.1 31.152 30.1 31.368C30.1 31.584 30.136 31.776 30.208 31.944C30.232 31.992 30.268 32.04 30.316 32.088C30.388 32.136 30.448 32.16 30.496 32.16C30.664 32.208 30.82 32.16 30.964 32.016C31.132 31.872 31.252 31.764 31.324 31.692C31.516 31.5 31.708 31.308 31.9 31.116C32.092 30.924 32.272 30.72 32.44 30.504C32.512 30.456 32.608 30.372 32.728 30.252C32.824 30.156 32.92 30.06 33.016 29.964C33.112 29.844 33.196 29.724 33.268 29.604C33.316 29.556 33.364 29.52 33.412 29.496C33.46 29.472 33.508 29.436 33.556 29.388C33.676 29.196 33.82 29.04 33.988 28.92C34.156 28.776 34.3 28.62 34.42 28.452C34.564 28.26 34.696 28.104 34.816 27.984C34.864 27.96 34.924 27.912 34.996 27.84C35.284 27.456 35.608 27.108 35.968 26.796C36.328 26.484 36.652 26.136 36.94 25.752L37.12 25.572C37.192 25.5 37.264 25.428 37.336 25.356C37.408 25.284 37.48 25.2 37.552 25.104C37.576 25.056 37.6 25.032 37.624 25.032C37.648 25.008 37.684 24.972 37.732 24.924C37.876 24.828 37.984 24.696 38.056 24.528C38.104 24.48 38.164 24.432 38.236 24.384C38.308 24.336 38.368 24.288 38.416 24.24C38.488 24.12 38.572 24.012 38.668 23.916C38.764 23.82 38.86 23.712 38.956 23.592C39.004 23.544 39.04 23.508 39.064 23.484C39.112 23.46 39.16 23.424 39.208 23.376C39.376 23.136 39.568 22.932 39.784 22.764C40 22.572 40.276 22.44 40.612 22.368C40.804 22.32 41.02 22.308 41.26 22.332C41.524 22.332 41.764 22.332 41.98 22.332H44.752C45.016 22.332 45.292 22.332 45.58 22.332C45.892 22.308 46.132 22.356 46.3 22.476C46.444 22.596 46.48 22.74 46.408 22.908C46.336 23.052 46.276 23.172 46.228 23.268C46.108 23.388 45.988 23.508 45.868 23.628C45.748 23.724 45.628 23.832 45.508 23.952C45.34 24.144 45.172 24.324 45.004 24.492C44.86 24.66 44.692 24.828 44.5 24.996C43.66 25.836 42.82 26.688 41.98 27.552C41.14 28.416 40.3 29.268 39.46 30.108C39.076 30.54 38.668 30.948 38.236 31.332C38.068 31.5 37.912 31.668 37.768 31.836C37.624 31.98 37.528 32.184 37.48 32.448C37.432 32.64 37.468 32.832 37.588 33.024C37.708 33.192 37.804 33.336 37.876 33.456C38.116 33.816 38.356 34.176 38.596 34.536C38.86 34.872 39.112 35.22 39.352 35.58C40.36 37.02 41.368 38.448 42.376 39.864C43.384 41.256 44.392 42.672 45.4 44.112L46.696 45.948C46.792 46.092 46.888 46.236 46.984 46.38C47.104 46.5 47.212 46.632 47.308 46.776C47.38 46.896 47.464 47.064 47.56 47.28C47.656 47.496 47.62 47.664 47.452 47.784C47.284 47.904 47.044 47.964 46.732 47.964C46.42 47.964 46.132 47.964 45.868 47.964L43.024 47.964C42.76 47.964 42.496 47.976 42.232 48C41.968 48 41.728 47.976 41.512 47.928C41.248 47.832 41.032 47.7 40.864 47.532C40.72 47.34 40.576 47.136 40.432 46.92C40.288 46.728 40.144 46.536 40 46.344C39.88 46.128 39.748 45.912 39.604 45.696C38.956 44.688 38.296 43.704 37.624 42.744C36.952 41.784 36.28 40.8 35.608 39.792C35.344 39.384 35.08 38.988 34.816 38.604C34.576 38.22 34.324 37.836 34.06 37.452C33.964 37.332 33.844 37.2 33.7 37.056C33.556 36.888 33.364 36.828 33.124 36.876C32.884 36.948 32.644 37.116 32.404 37.38C32.164 37.62 31.96 37.824 31.792 37.992C31.672 38.112 31.552 38.244 31.432 38.388C31.312 38.508 31.192 38.628 31.072 38.748C30.904 38.916 30.748 39.084 30.604 39.252C30.46 39.396 30.34 39.576 30.244 39.792C30.172 39.936 30.124 40.092 30.1 40.26C30.1 40.428 30.1 40.608 30.1 40.8V41.268C30.076 41.388 30.064 41.532 30.064 41.7C30.088 41.844 30.1 41.976 30.1 42.096V43.788V46.344C30.1 46.608 30.088 46.86 30.064 47.1C30.064 47.34 30.004 47.532 29.884 47.676C29.764 47.82 29.584 47.904 29.344 47.928C29.104 47.952 28.852 47.964 28.588 47.964H26.14C25.876 47.964 25.624 47.964 25.384 47.964C25.144 47.94 24.94 47.868 24.772 47.748C24.604 47.628 24.52 47.412 24.52 47.1C24.52 46.764 24.52 46.44 24.52 46.128L24.52 41.952V27.588L24.52 24.24C24.52 23.976 24.508 23.7 24.484 23.412C24.484 23.124 24.532 22.896 24.628 22.728C24.772 22.56 24.964 22.44 25.204 22.368C25.252 22.344 25.3 22.344 25.348 22.368C25.396 22.368 25.444 22.356 25.492 22.332Z" fill="#E20613"/>
</svg>
