<svg width="70" height="70" viewBox="0 0 70 70" fill="none" xmlns="http://www.w3.org/2000/svg">
<circle cx="35" cy="35" r="32" fill="white" stroke="#E20613" stroke-width="5"/>
<path d="M27.8221 22.332H30.8821C31.1461 22.332 31.3981 22.344 31.6381 22.368C31.9021 22.368 32.0941 22.452 32.2141 22.62C32.3341 22.788 32.3941 23.016 32.3941 23.304C32.3941 23.568 32.3941 23.856 32.3941 24.168V27.444V38.352L32.3941 40.476C32.3941 40.668 32.3821 40.86 32.3581 41.052C32.3581 41.22 32.3821 41.388 32.4301 41.556V41.916C32.4301 42.084 32.4301 42.252 32.4301 42.42C32.4541 42.564 32.4901 42.696 32.5381 42.816C32.7061 43.128 33.0421 43.284 33.5461 43.284C34.0501 43.284 34.5421 43.284 35.0221 43.284H42.0061C42.1981 43.284 42.4381 43.284 42.7261 43.284C43.0141 43.26 43.2901 43.26 43.5541 43.284C43.8181 43.284 44.0581 43.308 44.2741 43.356C44.5141 43.404 44.6701 43.476 44.7421 43.572C44.8621 43.716 44.9221 43.896 44.9221 44.112C44.9221 44.328 44.9221 44.556 44.9221 44.796L44.9221 46.452C44.9221 46.644 44.9221 46.824 44.9221 46.992C44.9461 47.16 44.9341 47.304 44.8861 47.424C44.7901 47.616 44.6701 47.748 44.5261 47.82C44.4061 47.916 44.2261 47.964 43.9861 47.964C43.7461 47.964 43.5181 47.964 43.3021 47.964H40.7461H30.9901H28.3981C28.0621 47.964 27.7621 47.952 27.4981 47.928C27.2581 47.88 27.0781 47.76 26.9581 47.568C26.8621 47.424 26.8141 47.244 26.8141 47.028C26.8141 46.788 26.8141 46.56 26.8141 46.344V43.824L26.8141 34.284V26.148L26.8141 23.88C26.8141 23.664 26.8141 23.448 26.8141 23.232C26.8381 23.016 26.8861 22.848 26.9581 22.728C27.0541 22.56 27.2461 22.44 27.5341 22.368C27.5821 22.344 27.6301 22.344 27.6781 22.368C27.7261 22.368 27.7741 22.356 27.8221 22.332Z" fill="#E20613"/>
</svg>
