<svg width="70" height="69" viewBox="0 0 70 69" fill="none" xmlns="http://www.w3.org/2000/svg">
<ellipse cx="35" cy="34.36" rx="32" ry="31.36" fill="white" stroke="#E20613" stroke-width="5"/>
<path d="M25.476 23.332H39.876L43.548 23.332C43.86 23.332 44.16 23.344 44.448 23.368C44.76 23.368 45.012 23.428 45.204 23.548C45.276 23.596 45.324 23.68 45.348 23.8C45.396 23.896 45.432 24.004 45.456 24.124V24.304C45.48 24.4 45.492 24.508 45.492 24.628C45.492 24.748 45.492 24.868 45.492 24.988V26.392C45.492 26.56 45.492 26.728 45.492 26.896C45.516 27.04 45.504 27.184 45.456 27.328C45.336 27.736 45.096 27.952 44.736 27.976C44.376 28 43.944 28.012 43.44 28.012L39.768 28.012C39.288 28.012 38.868 28.036 38.508 28.084C38.172 28.108 37.944 28.324 37.824 28.732C37.8 28.852 37.8 28.96 37.824 29.056C37.848 29.152 37.836 29.26 37.788 29.38C37.764 29.524 37.752 29.692 37.752 29.884C37.776 30.052 37.788 30.208 37.788 30.352V33.556L37.788 43.924V47.308C37.788 47.692 37.764 48.028 37.716 48.316C37.692 48.58 37.548 48.772 37.284 48.892C37.116 48.94 36.924 48.964 36.708 48.964C36.492 48.964 36.288 48.964 36.096 48.964H33.648C33.384 48.964 33.132 48.952 32.892 48.928C32.676 48.904 32.508 48.82 32.388 48.676C32.268 48.484 32.208 48.244 32.208 47.956C32.208 47.644 32.208 47.332 32.208 47.02V43.42L32.208 33.412V30.352C32.208 30.184 32.208 30.016 32.208 29.848C32.232 29.656 32.22 29.488 32.172 29.344C32.148 29.224 32.148 29.116 32.172 29.02C32.196 28.924 32.184 28.828 32.136 28.732C32.016 28.324 31.764 28.108 31.38 28.084C31.02 28.036 30.588 28.012 30.084 28.012H26.736C26.472 28.012 26.172 28.024 25.836 28.048C25.524 28.048 25.272 28.024 25.08 27.976C24.888 27.904 24.744 27.796 24.648 27.652C24.576 27.532 24.528 27.376 24.504 27.184C24.504 26.992 24.504 26.8 24.504 26.608V24.844C24.504 24.532 24.516 24.256 24.54 24.016C24.588 23.776 24.708 23.596 24.9 23.476C24.972 23.428 25.104 23.38 25.296 23.332C25.416 23.332 25.476 23.332 25.476 23.332Z" fill="#E20613"/>
</svg>
