<svg width="70" height="70" viewBox="0 0 70 70" fill="none" xmlns="http://www.w3.org/2000/svg">
<circle cx="35" cy="35" r="32" fill="white" stroke="#E20613" stroke-width="5"/>
<path d="M23.936 23.332H26.852C27.116 23.332 27.38 23.332 27.644 23.332C27.932 23.332 28.16 23.392 28.328 23.512C28.544 23.632 28.688 23.824 28.76 24.088C28.832 24.352 28.916 24.616 29.012 24.88C29.18 25.336 29.324 25.792 29.444 26.248C29.588 26.704 29.744 27.172 29.912 27.652C30.392 29.14 30.86 30.628 31.316 32.116C31.796 33.604 32.276 35.092 32.756 36.58C32.876 36.988 32.996 37.396 33.116 37.804C33.26 38.212 33.392 38.62 33.512 39.028C33.584 39.244 33.656 39.46 33.728 39.676C33.8 39.892 33.896 40.084 34.016 40.252C34.04 40.3 34.064 40.336 34.088 40.36C34.136 40.36 34.184 40.384 34.232 40.432C34.496 40.432 34.664 40.324 34.736 40.108C34.832 39.868 34.916 39.652 34.988 39.46C35.18 38.956 35.348 38.44 35.492 37.912C35.636 37.384 35.804 36.844 35.996 36.292C36.524 34.708 37.028 33.136 37.508 31.576C38.012 29.992 38.528 28.408 39.056 26.824C39.176 26.44 39.296 26.068 39.416 25.708C39.536 25.324 39.656 24.94 39.776 24.556C39.872 24.364 39.944 24.172 39.992 23.98C40.064 23.788 40.196 23.632 40.388 23.512C40.556 23.392 40.748 23.332 40.964 23.332C41.204 23.332 41.444 23.332 41.684 23.332H44.096C44.336 23.332 44.576 23.332 44.816 23.332C45.056 23.332 45.248 23.38 45.392 23.476C45.632 23.596 45.716 23.824 45.644 24.16C45.572 24.472 45.5 24.736 45.428 24.952C45.212 25.504 45.008 26.08 44.816 26.68C44.648 27.256 44.468 27.832 44.276 28.408C44.204 28.552 44.144 28.696 44.096 28.84C44.072 28.984 44.036 29.128 43.988 29.272C43.796 29.776 43.616 30.292 43.448 30.82C43.304 31.348 43.136 31.876 42.944 32.404C42.296 34.348 41.648 36.304 41 38.272C40.352 40.216 39.704 42.16 39.056 44.104C38.84 44.656 38.648 45.22 38.48 45.796C38.312 46.348 38.132 46.9 37.94 47.452C37.82 47.788 37.7 48.1 37.58 48.388C37.46 48.652 37.22 48.832 36.86 48.928C36.668 48.976 36.452 49 36.212 49C35.972 48.976 35.744 48.964 35.528 48.964H32.936C32.672 48.964 32.384 48.976 32.072 49C31.784 49 31.544 48.94 31.352 48.82C31.088 48.676 30.908 48.46 30.812 48.172C30.74 47.86 30.656 47.56 30.56 47.272C30.392 46.768 30.224 46.264 30.056 45.76C29.912 45.232 29.756 44.716 29.588 44.212C29.06 42.7 28.556 41.176 28.076 39.64C27.596 38.104 27.092 36.568 26.564 35.032C26.348 34.336 26.132 33.652 25.916 32.98C25.724 32.284 25.508 31.6 25.268 30.928C25.172 30.712 25.1 30.496 25.052 30.28C25.004 30.064 24.932 29.848 24.836 29.632C24.62 28.96 24.404 28.3 24.188 27.652C23.996 26.98 23.78 26.308 23.54 25.636C23.492 25.42 23.432 25.216 23.36 25.024C23.288 24.808 23.216 24.592 23.144 24.376C23.12 24.256 23.096 24.136 23.072 24.016C23.072 23.896 23.096 23.788 23.144 23.692C23.216 23.524 23.372 23.416 23.612 23.368C23.66 23.344 23.708 23.344 23.756 23.368C23.828 23.368 23.888 23.356 23.936 23.332Z" fill="#E20613"/>
</svg>
